<svg width="48" height="48" viewBox="0 0 48 48" fill="none" xmlns="http://www.w3.org/2000/svg">
<g clip-path="url(#clip0_0_3)">
<path d="M24.2512 6.37745L9.65978 14.3932C8.14282 15.2265 7.56899 17.1687 8.37808 18.7311L19.5483 40.3013C20.3574 41.8637 22.243 42.4548 23.76 41.6214L38.3514 33.6057C39.8683 32.7723 40.4422 30.8302 39.6331 29.2678L28.4629 7.69754C27.6538 6.13514 25.7682 5.54411 24.2512 6.37745Z" fill="#F2F2F2" style="fill:#F2F2F2;fill:color(display-p3 0.9490 0.9490 0.9490);fill-opacity:1;"/>
<path d="M23.2402 13.7608L16.1766 17.6412C15.6244 17.9445 15.4155 18.6515 15.71 19.2202L18.3582 24.334C18.6528 24.9028 19.3392 25.1179 19.8914 24.8146L26.9549 20.9342C27.5071 20.6309 27.716 19.9239 27.4215 19.3551L24.7733 14.2414C24.4788 13.6726 23.7924 13.4575 23.2402 13.7608Z" fill="#FF41A5" style="fill:#FF41A5;fill:color(display-p3 1.0000 0.2549 0.6471);fill-opacity:1;"/>
<path d="M11.3252 20.2169C11.5198 20.5926 11.3991 21.0502 11.0549 21.239L9.06827 22.3037C8.72412 22.4925 8.28799 22.341 8.09339 21.9653C7.89817 21.5889 8.01893 21.1314 8.36308 20.9425L10.3497 19.8779C10.6939 19.689 11.1306 19.8405 11.3252 20.2169Z" fill="#FF41A5" style="fill:#FF41A5;fill:color(display-p3 1.0000 0.2549 0.6471);fill-opacity:1;"/>
<path d="M14.2295 26.1146C14.4241 26.4903 14.3034 26.9479 13.9592 27.1367L11.9726 28.2014C11.6284 28.3902 11.1923 28.2387 10.9977 27.863C10.8025 27.4866 10.9232 27.0291 11.2674 26.8402L13.254 25.7756C13.5982 25.5868 14.0349 25.7382 14.2295 26.1146Z" fill="#FF41A5" style="fill:#FF41A5;fill:color(display-p3 1.0000 0.2549 0.6471);fill-opacity:1;"/>
<path d="M17.1475 31.7928C17.3421 32.1685 17.2213 32.6261 16.8772 32.8149L14.8905 33.8796C14.5464 34.0684 14.1103 33.917 13.9157 33.5412C13.7204 33.1649 13.8412 32.7073 14.1853 32.5185L16.172 31.4538C16.5162 31.265 16.9523 31.4164 17.1469 31.7928H17.1475Z" fill="#FF41A5" style="fill:#FF41A5;fill:color(display-p3 1.0000 0.2549 0.6471);fill-opacity:1;"/>
<path d="M20.2686 37.7569C20.4632 38.1326 20.3424 38.5902 19.9983 38.779L18.0116 39.8437C17.6675 40.0325 17.2314 39.8811 17.0368 39.5053C16.8415 39.129 16.9623 38.6714 17.3064 38.4826L19.2931 37.4179C19.6373 37.2291 20.074 37.3805 20.2686 37.7569Z" fill="#FF41A5" style="fill:#FF41A5;fill:color(display-p3 1.0000 0.2549 0.6471);fill-opacity:1;"/>
</g>
<defs>
<clipPath id="clip0_0_3">
<rect width="16" height="18" fill="white" style="fill:white;fill-opacity:1;" transform="matrix(2 0 0 2 8 6)"/>
</clipPath>
</defs>
</svg>
