<svg width="24" height="24" viewBox="0 0 24 24" fill="none" xmlns="http://www.w3.org/2000/svg">
<path d="M6.5 22.5H3.5C3.24651 22.5094 2.99366 22.4687 2.75591 22.3802C2.51816 22.2918 2.30017 22.1574 2.11442 21.9846C1.92867 21.8119 1.7788 21.6042 1.67337 21.3735C1.56794 21.1427 1.50903 20.8935 1.5 20.64V3.36C1.50903 3.1065 1.56794 2.85726 1.67337 2.62654C1.7788 2.39582 1.92867 2.18815 2.11442 2.0154C2.30017 1.84265 2.51816 1.70822 2.75591 1.61978C2.99366 1.53134 3.24651 1.49064 3.5 1.5H20.5C20.7535 1.49064 21.0063 1.53134 21.2441 1.61978C21.4818 1.70822 21.6998 1.84265 21.8856 2.0154C22.0713 2.18815 22.2212 2.39582 22.3266 2.62654C22.4321 2.85726 22.491 3.1065 22.5 3.36V14.5" stroke="white" stroke-opacity="0.8" style="stroke:white;stroke-opacity:0.8;" stroke-miterlimit="10" stroke-linecap="round"/>
<path d="M21.5 19.5C21.5 19.5 20 16.5 15.5 16.5C11 16.5 9.5 19.5 9.5 19.5C9.5 19.5 11 22.5 15.5 22.5C20 22.5 21.5 19.5 21.5 19.5Z" stroke="white" stroke-opacity="0.8" style="stroke:white;stroke-opacity:0.8;" stroke-miterlimit="10"/>
<path d="M15.5 22C16.8807 22 18 20.8807 18 19.5C18 18.1193 16.8807 17 15.5 17C14.1193 17 13 18.1193 13 19.5C13 20.8807 14.1193 22 15.5 22Z" stroke="white" stroke-opacity="0.8" style="stroke:white;stroke-opacity:0.8;" stroke-miterlimit="10"/>
<path d="M5 11V6C5 5.44772 5.44772 5 6 5H11" stroke="white" stroke-opacity="0.8" style="stroke:white;stroke-opacity:0.8;" stroke-linecap="round"/>
</svg>
