<svg width="24" height="24" viewBox="0 0 24 24" fill="none" xmlns="http://www.w3.org/2000/svg">
<path d="M4.09991 3.23262C3.88996 3.44257 3.75 3.79248 3.75 4.21237V19.6784C3.75 20.0983 3.88996 20.4482 4.09991 20.6581L4.16989 20.7281L12.8476 12.0503V11.9804V11.9104L4.09991 3.23262Z" fill="url(#paint0_linear_4573_23890)"/>
<path d="M15.7169 14.9896L12.8477 12.1203V11.9804V11.9104L15.7169 9.04112L15.7869 9.1111L19.216 11.0706C20.1958 11.6305 20.1958 12.5402 19.216 13.1001L15.7169 14.9896Z" fill="url(#paint1_linear_4573_23890)"/>
<path d="M15.7869 14.9196L12.8477 11.9803L4.09991 20.7281C4.44982 21.078 4.9397 21.078 5.56953 20.7981L15.7869 14.9196Z" fill="url(#paint2_linear_4573_23890)"/>
<path d="M15.7869 9.04111L5.56953 3.23261C4.9397 2.8827 4.44982 2.95268 4.09991 3.30259L12.8477 11.9803L15.7869 9.04111Z" fill="url(#paint3_linear_4573_23890)"/>
<path opacity="0.2" d="M15.7169 14.8496L5.56953 20.5881C5.00968 20.938 4.51981 20.8681 4.1699 20.5881L4.09991 20.6581L4.1699 20.7281C4.51981 21.008 5.00968 21.078 5.56953 20.7281L15.7169 14.8496Z" fill="black" style="fill:black;fill-opacity:1;"/>
<path opacity="0.12" d="M4.09987 20.5881C3.88993 20.3782 3.81995 20.0283 3.81995 19.6084V19.6784C3.81995 20.0983 3.95991 20.4482 4.16986 20.6581V20.5881H4.09987Z" fill="black" style="fill:black;fill-opacity:1;"/>
<path opacity="0.12" d="M19.216 12.8901L15.7169 14.8496L15.7868 14.9196L19.216 12.9601C19.7058 12.6802 19.9158 12.3303 19.9158 11.9803C19.9158 12.3303 19.6358 12.6102 19.216 12.8901Z" fill="black" style="fill:black;fill-opacity:1;"/>
<path opacity="0.25" d="M5.56949 3.3026L19.216 11.0706C19.6359 11.3505 19.9158 11.6304 19.9158 11.9804C19.9158 11.6304 19.7058 11.2805 19.216 11.0006L5.56949 3.23262C4.58975 2.67276 3.81995 3.16264 3.81995 4.28235V4.35233C3.81995 3.23262 4.58975 2.74275 5.56949 3.3026Z" fill="white" style="fill:white;fill-opacity:1;"/>
<defs>
<linearGradient id="paint0_linear_4573_23890" x1="12.0776" y1="4.07919" x2="0.332997" y2="15.8238" gradientUnits="userSpaceOnUse">
<stop stop-color="#00A0FF" style="stop-color:#00A0FF;stop-color:color(display-p3 0.0000 0.6275 1.0000);stop-opacity:1;"/>
<stop offset="0.00657445" stop-color="#00A1FF" style="stop-color:#00A1FF;stop-color:color(display-p3 0.0000 0.6314 1.0000);stop-opacity:1;"/>
<stop offset="0.2601" stop-color="#00BEFF" style="stop-color:#00BEFF;stop-color:color(display-p3 0.0000 0.7451 1.0000);stop-opacity:1;"/>
<stop offset="0.5122" stop-color="#00D2FF" style="stop-color:#00D2FF;stop-color:color(display-p3 0.0000 0.8235 1.0000);stop-opacity:1;"/>
<stop offset="0.7604" stop-color="#00DFFF" style="stop-color:#00DFFF;stop-color:color(display-p3 0.0000 0.8745 1.0000);stop-opacity:1;"/>
<stop offset="1" stop-color="#00E3FF" style="stop-color:#00E3FF;stop-color:color(display-p3 0.0000 0.8902 1.0000);stop-opacity:1;"/>
</linearGradient>
<linearGradient id="paint1_linear_4573_23890" x1="20.4998" y1="11.9813" x2="3.56631" y2="11.9813" gradientUnits="userSpaceOnUse">
<stop stop-color="#FFE000" style="stop-color:#FFE000;stop-color:color(display-p3 1.0000 0.8784 0.0000);stop-opacity:1;"/>
<stop offset="0.4087" stop-color="#FFBD00" style="stop-color:#FFBD00;stop-color:color(display-p3 1.0000 0.7412 0.0000);stop-opacity:1;"/>
<stop offset="0.7754" stop-color="#FFA500" style="stop-color:#FFA500;stop-color:color(display-p3 1.0000 0.6471 0.0000);stop-opacity:1;"/>
<stop offset="1" stop-color="#FF9C00" style="stop-color:#FF9C00;stop-color:color(display-p3 1.0000 0.6118 0.0000);stop-opacity:1;"/>
</linearGradient>
<linearGradient id="paint2_linear_4573_23890" x1="14.1962" y1="13.5872" x2="-1.73049" y2="29.5139" gradientUnits="userSpaceOnUse">
<stop stop-color="#FF3A44" style="stop-color:#FF3A44;stop-color:color(display-p3 1.0000 0.2275 0.2667);stop-opacity:1;"/>
<stop offset="1" stop-color="#C31162" style="stop-color:#C31162;stop-color:color(display-p3 0.7647 0.0667 0.3843);stop-opacity:1;"/>
</linearGradient>
<linearGradient id="paint3_linear_4573_23890" x1="1.92859" y1="-1.89272" x2="9.04057" y2="5.21919" gradientUnits="userSpaceOnUse">
<stop stop-color="#32A071" style="stop-color:#32A071;stop-color:color(display-p3 0.1961 0.6275 0.4431);stop-opacity:1;"/>
<stop offset="0.0685" stop-color="#2DA771" style="stop-color:#2DA771;stop-color:color(display-p3 0.1765 0.6549 0.4431);stop-opacity:1;"/>
<stop offset="0.4762" stop-color="#15CF74" style="stop-color:#15CF74;stop-color:color(display-p3 0.0824 0.8118 0.4549);stop-opacity:1;"/>
<stop offset="0.8009" stop-color="#06E775" style="stop-color:#06E775;stop-color:color(display-p3 0.0235 0.9059 0.4588);stop-opacity:1;"/>
<stop offset="1" stop-color="#00F076" style="stop-color:#00F076;stop-color:color(display-p3 0.0000 0.9412 0.4627);stop-opacity:1;"/>
</linearGradient>
</defs>
</svg>
